<svg width="22" height="22" viewBox="0 0 22 22" fill="none" xmlns="http://www.w3.org/2000/svg">
<circle cx="11" cy="11" r="10.5" stroke="#343131"/>
<path d="M11.4307 13.5674H9.90625C9.91081 13.1436 9.94727 12.7881 10.0156 12.501C10.084 12.2093 10.1979 11.945 10.3574 11.708C10.5215 11.471 10.738 11.2204 11.0068 10.9561C11.2165 10.7555 11.4056 10.5664 11.5742 10.3887C11.7428 10.2064 11.8773 10.015 11.9775 9.81445C12.0778 9.60938 12.1279 9.37467 12.1279 9.11035C12.1279 8.82324 12.0801 8.57943 11.9844 8.37891C11.8887 8.17839 11.7474 8.02572 11.5605 7.9209C11.3783 7.81608 11.1504 7.76367 10.877 7.76367C10.6491 7.76367 10.4349 7.80924 10.2344 7.90039C10.0339 7.98698 9.87207 8.1237 9.74902 8.31055C9.62598 8.49284 9.5599 8.73438 9.55078 9.03516H7.90332C7.91243 8.46094 8.04915 7.97786 8.31348 7.58594C8.5778 7.19401 8.93327 6.90007 9.37988 6.7041C9.8265 6.50814 10.3255 6.41016 10.877 6.41016C11.4876 6.41016 12.0094 6.51497 12.4424 6.72461C12.8753 6.92969 13.2057 7.23047 13.4336 7.62695C13.666 8.01888 13.7822 8.49284 13.7822 9.04883C13.7822 9.44987 13.7025 9.81445 13.543 10.1426C13.3835 10.4661 13.1761 10.7692 12.9209 11.0518C12.6657 11.3298 12.39 11.6077 12.0938 11.8857C11.8385 12.1182 11.6654 12.3711 11.5742 12.6445C11.4831 12.9134 11.4352 13.221 11.4307 13.5674ZM9.76953 15.7002C9.76953 15.4541 9.85384 15.2467 10.0225 15.0781C10.1911 14.9049 10.4212 14.8184 10.7129 14.8184C11.0046 14.8184 11.2347 14.9049 11.4033 15.0781C11.5719 15.2467 11.6562 15.4541 11.6562 15.7002C11.6562 15.9463 11.5719 16.1559 11.4033 16.3291C11.2347 16.4977 11.0046 16.582 10.7129 16.582C10.4212 16.582 10.1911 16.4977 10.0225 16.3291C9.85384 16.1559 9.76953 15.9463 9.76953 15.7002Z" fill="#343131"/>
</svg>
