<svg width="15" height="14" viewBox="0 0 15 14" fill="none" xmlns="http://www.w3.org/2000/svg">
<mask id="mask0_3021_8803" style="mask-type:luminance" maskUnits="userSpaceOnUse" x="0" y="0" width="15" height="14">
<path d="M7.5 13C8.28808 13.001 9.06858 12.8462 9.79666 12.5446C10.5247 12.243 11.1861 11.8006 11.7426 11.2426C12.3006 10.6861 12.743 10.0247 13.0446 9.29666C13.3462 8.56858 13.501 7.78808 13.5 7C13.501 6.21193 13.3462 5.43143 13.0446 4.70335C12.743 3.97527 12.3006 3.31396 11.7426 2.7574C11.1861 2.19945 10.5247 1.75697 9.79666 1.45538C9.06858 1.15379 8.28808 0.999033 7.5 1C6.71193 0.999033 5.93143 1.15379 5.20335 1.45538C4.47527 1.75697 3.81396 2.19945 3.2574 2.7574C2.69945 3.31396 2.25697 3.97527 1.95538 4.70335C1.65379 5.43143 1.49903 6.21193 1.5 7C1.49903 7.78808 1.65379 8.56858 1.95538 9.29666C2.25697 10.0247 2.69945 10.6861 3.2574 11.2426C3.81396 11.8006 4.47527 12.243 5.20335 12.5446C5.93143 12.8462 6.71193 13.001 7.5 13Z" fill="white" stroke="white" stroke-width="1.875" stroke-linejoin="round"/>
<path d="M5.1001 7.0002L6.9001 8.8002L10.5001 5.2002" stroke="black" stroke-width="1.875" stroke-linecap="round" stroke-linejoin="round"/>
</mask>
<g mask="url(#mask0_3021_8803)">
<path d="M0.300049 -0.200195H14.7V14.1998H0.300049V-0.200195Z" fill="#10CC82"/>
</g>
</svg>
