<svg width="16" height="16" viewBox="0 0 16 16" fill="none" xmlns="http://www.w3.org/2000/svg">
<path d="M9.14286 1.14286L9.14286 6.85714L14.8571 6.85714C15.1602 6.85714 15.4509 6.97755 15.6653 7.19188C15.8796 7.40621 16 7.69689 16 8C16 8.3031 15.8796 8.59379 15.6653 8.80812C15.4509 9.02245 15.1602 9.14286 14.8571 9.14286L9.14286 9.14286L9.14286 14.8571C9.14286 15.1602 9.02245 15.4509 8.80812 15.6653C8.59379 15.8796 8.30311 16 8 16C7.6969 16 7.40621 15.8796 7.19188 15.6653C6.97755 15.4509 6.85714 15.1602 6.85714 14.8571L6.85714 9.14286L1.14286 9.14286C0.839752 9.14286 0.549062 9.02245 0.334734 8.80812C0.120407 8.59379 -3.36442e-07 8.3031 -3.49691e-07 8C-3.6294e-07 7.6969 0.120407 7.40621 0.334734 7.19188C0.549062 6.97755 0.839752 6.85714 1.14286 6.85714L6.85714 6.85714L6.85714 1.14286C6.85714 0.839753 6.97755 0.549062 7.19188 0.334735C7.4062 0.120408 7.69689 6.17232e-07 8 6.03983e-07C8.3031 5.90734e-07 8.59379 0.120408 8.80812 0.334735C9.02245 0.549062 9.14286 0.839753 9.14286 1.14286Z" fill="#F6F7FE"/>
</svg>
